<?xml version="1.0" standalone="no"?>
<!DOCTYPE svg PUBLIC "-//W3C//DTD SVG 20010904//EN"
 "http://www.w3.org/TR/2001/REC-SVG-20010904/DTD/svg10.dtd">
<svg version="1.0" xmlns="http://www.w3.org/2000/svg"
 width="576.000000pt" height="576.000000pt" viewBox="0 0 576.000000 576.000000"
 preserveAspectRatio="xMidYMid meet">
<metadata>
Created by potrace 1.14, written by Peter Selinger 2001-2017
</metadata>
<g transform="translate(0.000000,576.000000) scale(0.100000,-0.100000)"
fill="#000000" stroke="none">
<path d="M2400 5740 c-142 -26 -158 -29 -240 -51 -415 -109 -806 -307 -1119
-567 -319 -264 -571 -581 -752 -942 -135 -270 -216 -516 -269 -820 -16 -90
-19 -160 -19 -480 0 -270 4 -396 14 -450 7 -41 15 -88 18 -105 3 -16 15 -70
27 -120 237 -1001 1011 -1817 1996 -2105 73 -21 181 -48 241 -60 59 -12 128
-25 153 -30 52 -11 840 -7 885 3 17 4 76 16 132 27 304 60 644 194 930 369 80
48 273 184 307 215 6 6 45 40 86 76 427 370 742 876 891 1429 70 258 78 336
78 751 0 399 -4 444 -59 675 -80 341 -234 685 -438 979 -65 93 -57 84 -163
211 -309 370 -721 665 -1176 841 -136 52 -348 114 -478 138 -49 9 -110 21
-135 26 -25 5 -218 9 -430 8 -322 0 -401 -3 -480 -18z"/>
</g>
</svg>
